# xmcd
#
# Track frame offsets:
#	150
#	16191
#	29998
#	47117
#	62228
#	72881
#	89480
#	103055
#	118916
#	133788
#	147853
#	165785
#	181505
#	196616
#	213735
#
# Disc length: 3062 seconds
#
# Revision: 0
# Processed by: cddbd v1.5.1PL2 Copyright (c) Steve Scherf et al.
# Submitted via: dBpowerAMP V4.0
#
DISCID=d70bf40f
DTITLE=FERRO NA BONECA - 4 ANOS DE SUCESSO
DYEAR=2005
DGENRE=FORRÓ
TTITLE0=NOSSA HIS´TORIA
TTITLE1=OUTRA CHANCE
TTITLE2=O QUE TEM QUE SER SERÁ
TTITLE3=POR QUE?
TTITLE4=VIVENDO DE SOLIDÃO
TTITLE5=DE PERNAS VIRADAS
TTITLE6=NÃO É DA CONTA DE NIMGUEM
TTITLE7=VADIAR
TTITLE8=DESTINO DE VAQUEIRO
TTITLE9=CORRE VIADO
TTITLE10=ALO
TTITLE11=CORAÇÃO
TTITLE12=POR QUE? - PLAY-BACK
TTITLE13=O QUE TEM QUE SER SERÁ - PLAY-BACK
TTITLE14=NOSSA HISTÓRIA - PLAY-BACK
EXTD=
EXTT0=
EXTT1=
EXTT2=
EXTT3=
EXTT4=
EXTT5=
EXTT6=
EXTT7=
EXTT8=
EXTT9=
EXTT10=
EXTT11=
EXTT12=
EXTT13=
EXTT14=
PLAYORDER=
